<?xml version="1.0" encoding="UTF-8" standalone="no"?>
<!-- Created with Inkscape (http://www.inkscape.org/) -->

<svg
   width="210mm"
   height="297mm"
   viewBox="0 0 210 297"
   version="1.1"
   id="svg1"
   inkscape:export-filename="Digitax logo 1.0 skelton 2.png"
   inkscape:export-xdpi="96"
   inkscape:export-ydpi="96"
   inkscape:version="1.3.2 (091e20e, 2023-11-25, custom)"
   sodipodi:docname="Digitax logo 1.0 skelton file.svg"
   xmlns:inkscape="http://www.inkscape.org/namespaces/inkscape"
   xmlns:sodipodi="http://sodipodi.sourceforge.net/DTD/sodipodi-0.dtd"
   xmlns="http://www.w3.org/2000/svg"
   xmlns:svg="http://www.w3.org/2000/svg">
  <sodipodi:namedview
     id="namedview1"
     pagecolor="#ffffff"
     bordercolor="#000000"
     borderopacity="0.25"
     inkscape:showpageshadow="2"
     inkscape:pageopacity="0.0"
     inkscape:pagecheckerboard="0"
     inkscape:deskcolor="#d1d1d1"
     inkscape:document-units="mm"
     inkscape:zoom="0.4894542"
     inkscape:cx="-88.874506"
     inkscape:cy="542.44095"
     inkscape:window-width="1920"
     inkscape:window-height="991"
     inkscape:window-x="-9"
     inkscape:window-y="-9"
     inkscape:window-maximized="1"
     inkscape:current-layer="g21025" />
  <defs
     id="defs1">
    <clipPath
       id="ddbf9cff7a-8">
      <path
         d="m 172.57422,55.109375 h 12.10937 v 12.011719 h -12.10937 z m 0,0"
         clip-rule="nonzero"
         id="path37-7" />
    </clipPath>
    <clipPath
       id="4b8053cfb4-6">
      <path
         d="m 183,55 h 42 v 39 h -42 z m 0,0"
         clip-rule="nonzero"
         id="path40-5" />
    </clipPath>
    <clipPath
       id="c5f83a3956-6">
      <path
         d="m 224.78906,55.320312 -0.1914,38.0625 -41.48438,-0.210937 0.19531,-38.0625 z m 0,0"
         clip-rule="nonzero"
         id="path43-2" />
    </clipPath>
    <clipPath
       id="375c2fd29b-6">
      <path
         d="m 223.625,68.007812 c 0.65625,1.949219 1.07812,4.175782 1.06641,6.355469 -0.008,2.175781 -0.39454,4.269531 -1.06641,6.199219 -0.0195,0.03906 -0.0234,0.08203 -0.043,0.121094 -2.69141,7.238281 -9.72656,12.542968 -17.80078,12.605468 l -22.60938,-0.117187 0.19532,-38.0625 22.59375,0.113281 c 8.1289,0.144532 15.10937,5.441406 17.66406,12.785156 z m 0,0"
         clip-rule="nonzero"
         id="path46-0-0" />
    </clipPath>
    <clipPath
       id="ae19cc6697-5">
      <path
         d="m 194,66 h 20 v 17 h -20 z m 0,0"
         clip-rule="nonzero"
         id="path49-1" />
    </clipPath>
    <clipPath
       id="b68d75c41a-2">
      <path
         d="m 213.92187,66.371094 -0.082,15.855468 -19.82031,-0.101562 0.082,-15.855469 z m 0,0"
         clip-rule="nonzero"
         id="path52-1" />
    </clipPath>
    <clipPath
       id="89c3f3f00c-1">
      <path
         d="m 213.43359,71.65625 c 0.27344,0.8125 0.44922,1.738281 0.44532,2.644531 -0.004,0.90625 -0.16407,1.78125 -0.44532,2.582031 -0.008,0.01953 -0.008,0.03516 -0.0156,0.05078 -1.1211,3.015625 -4.05469,5.226562 -7.47266,5.25 l -11.89844,-0.05859 0.082,-15.855469 11.89062,0.05859 c 3.44141,0.0625 6.35156,2.265625 7.41406,5.328125 z m 0,0"
         clip-rule="nonzero"
         id="path55-4" />
    </clipPath>
    <clipPath
       id="0dd2518552-1">
      <path
         d="m 194.04687,81.070312 h 2.39063 v 12.316407 h -2.39063 z m 0,0"
         clip-rule="nonzero"
         id="path58-2-2" />
    </clipPath>
  </defs>
  <g
     inkscape:label="Layer 1"
     inkscape:groupmode="layer"
     id="layer1">
    <g
       id="g21083"
       transform="matrix(2.0042815,0,0,2.0042815,-541.83705,-195.86244)"
       style="display:inline">
      <g
         id="g21025">
        <g
           transform="matrix(1.3520008,0,0,1.4181629,54.819787,51.513126)"
           fill="#38b6ff"
           fill-opacity="1"
           id="g79"
           style="display:inline">
          <g
             transform="translate(168.92465,111.79837)"
             id="g77">
            <g
               id="g75">
              <path
                 d="m 1.476562,0 h 3.308594 c 3.851563,0 5.976563,-2.078125 5.976563,-5.644531 0,-3.722657 -2.058594,-5.816407 -5.960938,-5.816407 H 1.476562 Z m 2.058594,-1.890625 v -7.679687 h 1.234375 c 2.820313,0 3.933594,1.121093 3.933594,3.835937 0,2.863281 -1.589844,3.84375 -4.121094,3.84375 z m 0,0"
                 id="path73" />
            </g>
          </g>
        </g>
        <g
           transform="matrix(1.3520008,0,0,1.4181629,54.819787,51.513126)"
           fill="#38b6ff"
           fill-opacity="1"
           id="g87"
           style="display:inline">
          <g
             transform="translate(181.66349,111.79837)"
             id="g85">
            <g
               id="g83">
              <path
                 d="M 1.128906,-9.636719 H 3.1875 v -1.824219 H 1.128906 Z M 1.175781,0 H 3.136719 V -8.101562 H 1.175781 Z m 0,0"
                 id="path81" />
            </g>
          </g>
        </g>
        <g
           transform="matrix(1.3520008,0,0,1.4181629,54.819787,51.513126)"
           fill="#38b6ff"
           fill-opacity="1"
           id="g95"
           style="display:inline">
          <g
             transform="translate(187.29017,111.79837)"
             id="g93">
            <g
               id="g91">
              <path
                 d="M 4.882812,-1.265625 C 3.4375,-1.445312 2.441406,-1.460938 2.441406,-2.125 c 0,-0.1875 0.074219,-0.324219 0.234375,-0.429688 0.460938,0.203126 0.980469,0.316407 1.542969,0.316407 1.773438,0 3.292969,-1.152344 3.292969,-2.960938 0,-0.527343 -0.125,-1.003906 -0.351563,-1.410156 l 1.175782,-0.949219 -1.027344,-1.257812 -1.242188,1.0625 C 5.523438,-8.085938 4.859375,-8.273438 4.152344,-8.273438 c -1.792969,0 -3.324219,1.21875 -3.324219,2.976563 0,0.714844 0.25,1.355469 0.671875,1.867187 -0.476562,0.421876 -0.753906,0.949219 -0.753906,1.667969 0,0.78125 0.316406,1.273438 0.792968,1.597657 L 0.699219,0.601562 C 0.679688,0.679688 0.664062,0.761719 0.664062,0.949219 c 0,1.664062 1.394532,2.886719 3.789063,2.886719 2.011719,0 3.585937,-0.875 3.585937,-2.707032 0,-1.859375 -1.625,-2.191406 -3.15625,-2.394531 z M 4.21875,-6.738281 c 0.867188,0 1.328125,0.605469 1.328125,1.457031 0,0.828125 -0.445313,1.429688 -1.328125,1.429688 -0.878906,0 -1.347656,-0.601563 -1.347656,-1.429688 0,-0.851562 0.488281,-1.457031 1.347656,-1.457031 z m 0.25,9.015625 c -1.160156,0 -2.027344,-0.421875 -2.140625,-1.28125 L 2.742188,0.316406 c 0.476562,0.113282 0.988281,0.160156 1.441406,0.21875 1.28125,0.144532 1.980468,0.226563 1.980468,0.828125 0,0.582031 -0.664062,0.914063 -1.695312,0.914063 z m 0,0"
                 id="path89" />
            </g>
          </g>
        </g>
        <g
           transform="matrix(1.3520008,0,0,1.4181629,54.819787,51.513126)"
           fill="#38b6ff"
           fill-opacity="1"
           id="g103"
           style="display:inline">
          <g
             transform="translate(197.10953,111.79837)"
             id="g101">
            <g
               id="g99">
              <path
                 d="M 1.128906,-9.636719 H 3.1875 v -1.824219 H 1.128906 Z M 1.175781,0 H 3.136719 V -8.101562 H 1.175781 Z m 0,0"
                 id="path97" />
            </g>
          </g>
        </g>
        <g
           transform="matrix(1.3520008,0,0,1.4181629,54.819787,51.513126)"
           fill="#38b6ff"
           fill-opacity="1"
           id="g111"
           style="display:inline">
          <g
             transform="translate(202.73621,111.79837)"
             id="g109">
            <g
               id="g107">
              <path
                 d="m 4.054688,0.164062 c 0.558593,0 1.160156,-0.132812 1.460937,-0.2460932 V -1.875 c -0.269531,0.132812 -0.714844,0.292969 -1.128906,0.292969 -0.519531,0 -0.914063,-0.226563 -0.914063,-1.003907 V -6.449219 H 5.515625 V -8.101562 H 3.472656 v -3.421876 l -1.933594,1.410157 v 2.011719 H 0.203125 v 1.652343 h 1.304687 v 4.210938 c 0,1.476562 0.949219,2.402343 2.546876,2.402343 z m 0,0"
                 id="path105" />
            </g>
          </g>
        </g>
        <g
           transform="matrix(1.3520008,0,0,1.4181629,54.819787,51.513126)"
           fill="#38b6ff"
           fill-opacity="1"
           id="g119"
           style="display:inline">
          <g
             transform="translate(210.16323,111.79837)"
             id="g117">
            <g
               id="g115">
              <path
                 d="m 3.390625,0.164062 c 0.964844,0 1.824219,-0.308593 2.523437,-1.324218 L 6.042969,0 h 1.628906 v -4.914062 c 0,-1.980469 -1.296875,-3.359376 -3.503906,-3.359376 -1.597657,0 -2.628907,0.714844 -3.40625,1.777344 l 1.515625,1.09375 c 0.351562,-0.589844 0.976562,-1.144531 1.90625,-1.144531 1.046875,0 1.597656,0.683594 1.597656,1.714844 H 3.675781 c -1.820312,0 -3.230469,0.582031 -3.230469,2.34375 0,1.695312 1.28125,2.652343 2.945313,2.652343 z m 0.285156,-1.671874 c -0.773437,0 -1.203125,-0.382813 -1.203125,-0.917969 0,-0.511719 0.414063,-0.980469 1.316406,-0.980469 H 5.78125 C 5.75,-2.390625 4.800781,-1.507812 3.675781,-1.507812 Z m 0,0"
                 id="path113" />
            </g>
          </g>
        </g>
        <g
           transform="matrix(1.3520008,0,0,1.4181629,54.819787,51.513126)"
           fill="#38b6ff"
           fill-opacity="1"
           id="g127"
           style="display:inline">
          <g
             transform="translate(220.07991,111.79837)"
             id="g125">
            <g
               id="g123">
              <path
                 d="M 0.0820312,0 H 2.488281 L 4.167969,-2.726562 5.847656,0 H 8.273438 L 5.484375,-4.085938 8.273438,-8.101562 H 5.847656 L 4.167969,-5.433594 2.488281,-8.101562 H 0.0820312 l 2.7734378,4.015624 z m 0,0"
                 id="path121" />
            </g>
          </g>
        </g>
      </g>
      <g
         id="g21039">
        <g
           transform="matrix(1.2179508,0,0,1.4181629,77.953382,51.513126)"
           clip-path="url(#ddbf9cff7a-8)"
           id="g1097"
           style="display:inline">
          <path
             fill="#ff914d"
             d="m 172.57422,55.109375 h 12.10547 v 12.011719 h -12.10547 z m 0,0"
             fill-opacity="1"
             fill-rule="nonzero"
             id="path1095" />
        </g>
        <g
           transform="matrix(1.3520008,0,0,1.4181629,54.819787,51.513126)"
           clip-path="url(#4b8053cfb4-6)"
           id="g1105"
           style="display:inline">
          <g
             clip-path="url(#c5f83a3956-6)"
             id="g1103">
            <g
               clip-path="url(#375c2fd29b-6)"
               id="g1101">
              <path
                 fill="#38b6ff"
                 d="m 224.78906,55.320312 -0.1914,38.0625 -41.48438,-0.210937 0.19531,-38.0625 z m 0,0"
                 fill-opacity="1"
                 fill-rule="nonzero"
                 id="path1099" />
            </g>
          </g>
        </g>
        <g
           style="display:inline;fill:#ffffff"
           transform="matrix(1.3520008,0,0,1.4181629,54.819787,51.513126)"
           clip-path="url(#ae19cc6697-5)"
           id="g1113">
          <g
             style="fill:#ffffff"
             clip-path="url(#b68d75c41a-2)"
             id="g1111">
            <g
               style="fill:#ffffff"
               clip-path="url(#89c3f3f00c-1)"
               id="g1109">
              <path
                 style="fill:#ffffff"
                 fill="#f4f6fc"
                 d="m 213.92187,66.371094 -0.082,15.855468 -19.82031,-0.101562 0.082,-15.855469 z m 0,0"
                 fill-opacity="1"
                 fill-rule="nonzero"
                 id="path1107" />
            </g>
          </g>
        </g>
        <g
           style="display:inline;fill:#ffffff"
           transform="matrix(1.3520008,0,0,1.4181629,54.819787,51.513126)"
           clip-path="url(#0dd2518552-1)"
           id="g1117">
          <path
             style="fill:#ffffff"
             fill="#f4f6fc"
             d="m 196.4375,81.070312 v 12.320313 h -2.39063 V 81.070312 Z m 0,0"
             fill-opacity="1"
             fill-rule="nonzero"
             id="path1115" />
        </g>
      </g>
    </g>
  </g>
</svg>
